<?xml version="1.0" encoding="utf-8"?>
<!-- Generator: Adobe Illustrator 16.0.0, SVG Export Plug-In . SVG Version: 6.00 Build 0)  -->
<!DOCTYPE svg PUBLIC "-//W3C//DTD SVG 1.1//EN" "http://www.w3.org/Graphics/SVG/1.1/DTD/svg11.dtd">
<svg version="1.1" id="Layer_1" xmlns="http://www.w3.org/2000/svg" xmlns:xlink="http://www.w3.org/1999/xlink" x="0px" y="0px"
	 width="119.672px" height="119.663px" viewBox="0 0 119.672 119.663" enable-background="new 0 0 119.672 119.663"
	 xml:space="preserve">
<g>
	<g>
		<path fill-rule="evenodd" clip-rule="evenodd" fill="#6E023F" d="M59.835,119.663C27.095,119.432,0,94.75,0,59.832
			S27.096,0.23,59.834,0c-0.098,1.247-0.196,2.494-0.294,3.742C28.057,4.553,3.803,28.843,3.787,59.582
			c-0.016,31.199,24.049,55.518,55.753,56.34C59.638,117.168,59.737,118.417,59.835,119.663z"/>
		<path fill-rule="evenodd" clip-rule="evenodd" fill="#A54400" d="M59.835,119.663c-0.099-1.246-0.197-2.494-0.296-3.741
			l0.407-0.146c30.854,0.039,55.854-25.001,55.854-55.943S90.803,3.85,59.947,3.888L59.54,3.742C59.638,2.494,59.737,1.247,59.834,0
			c28.876,0.067,54.648,20.238,59.213,51.397C124.011,85.277,98.944,119.385,59.835,119.663z"/>
		<path fill-rule="evenodd" clip-rule="evenodd" fill="#A51736" d="M59.54,115.921c-31.704-0.822-55.769-25.141-55.753-56.34
			C3.803,28.843,28.057,4.553,59.541,3.742c-0.001,0,0.406,0.146,0.406,0.146c-0.057,1.32-0.113,2.641-0.17,3.961
			C30.866,8.138,7.843,31.182,7.843,59.832c0,28.649,23.022,51.692,51.934,51.981c0.057,1.32,0.113,2.642,0.17,3.962L59.54,115.921z
			"/>
		<path fill-rule="evenodd" clip-rule="evenodd" fill="#EDD005" d="M59.777,7.85c0.057-1.32,0.113-2.642,0.17-3.961
			c30.856-0.038,55.854,25.001,55.854,55.943s-25,55.982-55.854,55.943c-0.057-1.32-0.113-2.642-0.17-3.962l0.083,0.038
			c29.348-0.805,51.859-23.245,51.934-51.77C111.87,31.218,89.419,8.622,59.86,7.812L59.777,7.85z"/>
		<path fill-rule="evenodd" clip-rule="evenodd" fill="#6E023F" d="M59.777,111.813C30.865,111.524,7.843,88.481,7.843,59.832
			c0-28.65,23.023-51.694,51.934-51.982c0,0,0.083-0.038,0.083-0.039c-0.089,1.326-0.178,2.651-0.266,3.977
			c-26.458,0.538-47.753,21.73-47.774,47.544c-0.021,26.775,20.86,47.993,47.773,48.544c0.089,1.325,0.178,2.651,0.267,3.976
			L59.777,111.813z"/>
		<path fill-rule="evenodd" clip-rule="evenodd" fill="#A54400" d="M59.86,111.851c-0.089-1.324-0.178-2.65-0.267-3.976l0.396-0.125
			c26.03,0.299,47.795-21.522,47.795-47.919S86.02,11.614,59.99,11.913l-0.396-0.125c0.089-1.326,0.178-2.651,0.267-3.977
			c29.56,0.812,52.01,23.407,51.934,52.271C111.719,88.606,89.208,111.046,59.86,111.851z"/>
		<path fill-rule="evenodd" clip-rule="evenodd" fill="#A51736" d="M59.593,107.875C32.68,107.325,11.798,86.107,11.82,59.332
			c0.021-25.813,21.316-47.006,47.774-47.544c-0.001,0,0.396,0.125,0.396,0.125c-0.061,5.297-0.121,10.594-0.182,15.893
			c-23.379-0.354-36.5,21.609-29.303,43.932c1.128,3.499,0.771,5.357-1.693,7.709c-4.413,4.213-4.291,7.604-0.034,11.805
			c4.695,4.633,7.372,4.862,11.614,0.358c2.394-2.541,4.742-3.479,7.851-1.78c3.638,1.988,7.556,2.232,11.565,2.028
			c0.061,5.298,0.121,10.596,0.182,15.894L59.593,107.875z"/>
		<path fill-rule="evenodd" clip-rule="evenodd" fill="#DCA700" d="M59.99,107.75c-0.061-5.298-0.121-10.596-0.182-15.894
			l0.098,0.047c23.316,0.865,37.622-20.939,30.261-43.771c-1.168-3.623-0.881-5.657,1.8-8.152c4.258-3.963,4.065-7.346-0.071-11.427
			c-4.858-4.792-7.35-5.047-11.607-0.514c-2.379,2.532-4.744,3.608-7.817,1.813c-3.957-2.31-8.258-2.117-12.564-2.094l-0.098,0.047
			c0.061-5.298,0.121-10.596,0.182-15.893c26.03-0.299,47.795,21.522,47.795,47.919S86.02,108.049,59.99,107.75z"/>
		<path fill-rule="evenodd" clip-rule="evenodd" fill="#6E023F" d="M59.808,91.857c-4.009,0.204-7.927-0.04-11.565-2.028
			c-3.109-1.698-5.458-0.761-7.851,1.78c-4.242,4.504-6.919,4.274-11.614-0.358c-4.257-4.201-4.379-7.592,0.034-11.805
			c2.465-2.352,2.822-4.21,1.693-7.709c-7.198-22.322,5.923-44.285,29.303-43.932c0,0,0.098-0.047,0.098-0.046
			c0.009,1.401,0.019,2.803,0.027,4.205c-0.07,0.268-0.179,0.52-0.324,0.754c-1.167-0.724-2.417-1.11-3.786-0.78
			C38.37,36.14,31.089,48.188,33.068,65.18c0.382,3.281,0.527,7.735,4.53,9.832c-0.495,3.51-3.767,4.827-5.743,7.155
			c-1.647,1.94-3.153,3.421-0.309,5.675c2.169,1.72,3.888,3.828,6.371,0.473c0.977-1.32,2.352-2.338,3.484-3.551
			c1.691-1.813,2.854-1.759,5.4-0.536c3.959,1.901,8.214,4.087,12.996,3.604l0.084-0.065c0.008,1.38,0.017,2.759,0.024,4.138
			L59.808,91.857z"/>
		<path fill-rule="evenodd" clip-rule="evenodd" fill="#A54400" d="M59.933,31.964c-0.009-1.401-0.019-2.804-0.027-4.205
			c4.307-0.023,8.607-0.217,12.564,2.093c3.073,1.795,5.438,0.719,7.817-1.813c4.258-4.534,6.749-4.279,11.607,0.514
			c4.137,4.082,4.329,7.464,0.071,11.427c-2.681,2.496-2.968,4.53-1.8,8.152c7.361,22.832-6.944,44.636-30.261,43.771
			c-0.008-1.379-0.017-2.758-0.024-4.138C71.3,87.401,80.517,83.058,85.35,72.258c4.025-8.992,4.127-18.218-1.332-26.86
			c-1.075-1.704-0.839-2.568,0.434-3.731c1.347-1.23,2.618-2.544,3.882-3.861c1.691-1.761,3.96-3.167,0.842-5.978
			c-2.659-2.397-4.56-3.329-6.984,0.04c-1.053,1.461-2.565,2.585-3.833,3.898c-1.057,1.093-2.057,1.379-3.481,0.467
			C70.34,33.324,65.37,31.794,59.933,31.964z"/>
		<path fill-rule="evenodd" clip-rule="evenodd" fill="#EDD005" d="M59.933,31.964c5.437-0.17,10.407,1.36,14.943,4.27
			c1.425,0.913,2.425,0.626,3.481-0.467c1.268-1.313,2.78-2.437,3.833-3.898c2.425-3.369,4.325-2.438,6.984-0.04
			c3.118,2.811,0.85,4.216-0.842,5.978c-1.264,1.316-2.535,2.631-3.882,3.861c-1.272,1.163-1.509,2.027-0.434,3.731
			c5.459,8.642,5.357,17.868,1.332,26.86c-4.833,10.8-14.05,15.143-25.469,15.508l-0.084,0.065c0.025-1.33,0.052-2.662,0.078-3.993
			c2.657-0.034,5.338,0.146,7.965-0.148c4.441-0.497,2.85-5.069,4.597-7.105c1.7-1.982,6.64-0.099,7.173-4.512
			c0.336-2.779,0.185-5.639,0.028-8.449c-0.102-1.817-1.411-3.555-3.057-3.447c-5.63,0.37-4.854-3.35-4.787-6.776
			c0.036-1.826-0.02-3.655,0.011-5.481c0.215-12.96,0.014-12.09-11.856-12.128c-0.113-1.024-0.227-2.049-0.34-3.072
			C59.754,32.483,59.863,32.231,59.933,31.964z"/>
		<path fill-rule="evenodd" clip-rule="evenodd" fill="#A51736" d="M59.609,32.718c0.113,1.023,0.227,2.048,0.34,3.072l-0.418,0.135
			c-2.641-0.401-4.363,0.765-5.772,2.968c-3.4,5.321-6.563,10.865-10.555,15.715c-4.951,6.015-6.342,12.546-5.1,19.947
			c-0.166,0.156-0.334,0.309-0.507,0.458c-4.001-2.098-4.146-6.552-4.528-9.833c-1.979-16.993,5.302-29.04,22.755-33.242
			C57.192,31.608,58.442,31.994,59.609,32.718z"/>
		<path fill-rule="evenodd" clip-rule="evenodd" fill="#A51736" d="M59.875,83.838c-0.026,1.331-0.053,2.663-0.078,3.993
			c-4.781,0.483-9.037-1.702-12.996-3.604c-2.546-1.223-3.708-1.276-5.4,0.536c-1.132,1.213-2.507,2.23-3.484,3.551
			c-2.483,3.355-4.202,1.247-6.371-0.473c-2.844-2.254-1.338-3.734,0.309-5.675c1.976-2.328,5.248-3.646,5.743-7.155
			c0.17-0.148,0.339-0.301,0.501-0.454c7.05,2.527,14.349,0.701,21.516,1.217c0.088,1.347,0.176,2.694,0.265,4.04
			C59.878,81.156,59.876,82.498,59.875,83.838z"/>
		<path fill-rule="evenodd" clip-rule="evenodd" fill="#A54400" d="M59.875,83.838c0.001-1.341,0.003-2.683,0.003-4.023
			c0.663-0.001,1.334-0.068,1.987,0.009c4.049,0.477,6.759-0.255,6.008-5.387c-0.467-3.189,2.271-2.732,4.112-2.57
			c3.195,0.28,3.867-1.178,3.889-4.068c0.021-2.981-0.855-4.41-3.949-3.95c-3.307,0.492-4.336-0.981-4.192-4.199
			c0.222-4.962-0.204-9.961,0.141-14.909c0.277-3.997-1.121-5.485-5.003-4.91c-0.976,0.145-1.986,0.048-2.98,0.063
			c-0.12-1.322-0.239-2.646-0.359-3.967l0.418-0.135c11.87,0.038,12.071-0.832,11.856,12.128c-0.03,1.827,0.025,3.656-0.011,5.481
			c-0.067,3.426-0.843,7.146,4.787,6.776c1.646-0.107,2.955,1.63,3.057,3.447c0.156,2.811,0.308,5.67-0.028,8.449
			c-0.533,4.413-5.473,2.529-7.173,4.512c-1.747,2.036-0.155,6.608-4.597,7.105C65.213,83.984,62.533,83.804,59.875,83.838z"/>
		<path fill-rule="evenodd" clip-rule="evenodd" fill="#6E023F" d="M59.531,35.925c0.12,1.322,0.239,2.645,0.359,3.967l-0.098-0.049
			c-0.487,0.092-1.179,0.008-1.431,0.301c-6.384,7.435-11.934,15.551-16.242,24.253c-2.566,5.187-0.252,7.41,5.56,7.426
			c3.99,0.011,7.981,0.027,11.971,0.042c-0.012,1.303-0.023,2.606-0.035,3.909c-7.167-0.516-14.466,1.311-21.516-1.217
			c-1.238-7.403,0.153-13.935,5.104-19.95c3.992-4.85,7.155-10.394,10.555-15.715C55.167,36.69,56.89,35.524,59.531,35.925z"/>
		<path fill-rule="evenodd" clip-rule="evenodd" fill="#DCA700" d="M59.615,75.775c0.012-1.303,0.023-2.606,0.035-3.909
			c0-2.689,0-5.379,0-8.069c0.008-3.642,0.016-7.285,0.024-10.927c0.039-4.342,0.079-8.685,0.118-13.026l0.098,0.049
			c0.994-0.015,2.005,0.082,2.98-0.063c3.882-0.575,5.28,0.913,5.003,4.91c-0.345,4.948,0.081,9.947-0.141,14.909
			c-0.144,3.218,0.886,4.691,4.192,4.199c3.094-0.46,3.971,0.969,3.949,3.95c-0.021,2.891-0.693,4.349-3.889,4.068
			c-1.841-0.162-4.579-0.619-4.112,2.57c0.751,5.132-1.959,5.863-6.008,5.387c-0.653-0.077-1.324-0.01-1.987-0.009
			C59.791,78.469,59.703,77.122,59.615,75.775z"/>
		<path fill-rule="evenodd" clip-rule="evenodd" fill="#A51736" d="M59.792,39.844c-0.039,4.341-0.079,8.684-0.118,13.026
			c-1.869,0.971-2.519,2.958-3.555,4.55c-1.117,1.715-3.644,3.521-2.718,5.393c1.133,2.29,4.114,0.61,6.249,0.984
			c0,2.69,0,5.38,0,8.069c-3.99-0.015-7.98-0.031-11.971-0.042c-5.812-0.016-8.126-2.239-5.56-7.426
			c4.309-8.703,9.858-16.819,16.242-24.253C58.613,39.852,59.305,39.936,59.792,39.844z"/>
		<path fill-rule="evenodd" clip-rule="evenodd" fill="#6E023F" d="M59.65,63.796c-2.135-0.374-5.116,1.306-6.249-0.984
			c-0.926-1.872,1.601-3.678,2.718-5.393c1.036-1.592,1.686-3.579,3.555-4.55C59.666,56.512,59.658,60.155,59.65,63.796z"/>
	</g>
</g>
</svg>
