<?xml version="1.0" encoding="utf-8"?>
<!-- Generator: Adobe Illustrator 16.0.0, SVG Export Plug-In . SVG Version: 6.00 Build 0)  -->
<!DOCTYPE svg PUBLIC "-//W3C//DTD SVG 1.1//EN" "http://www.w3.org/Graphics/SVG/1.1/DTD/svg11.dtd">
<svg version="1.1" id="placeholder_xA0_Image_1_" xmlns="http://www.w3.org/2000/svg" xmlns:xlink="http://www.w3.org/1999/xlink"
	 x="0px" y="0px" width="128px" height="128px" viewBox="0 0 128 128" enable-background="new 0 0 128 128" xml:space="preserve">
<g>
	<g>
		<path fill-rule="evenodd" clip-rule="evenodd" fill="#2F4AD0" d="M1,1c41.5,0,83,0.04,124.5-0.084
			c2.982-0.009,3.594,0.601,3.584,3.584c-0.125,40.333-0.125,80.667,0,121c0.01,2.983-0.601,3.593-3.584,3.584
			c-40.333-0.125-80.667-0.125-121,0c-2.983,0.009-3.593-0.601-3.584-3.584C1.04,84,1,42.5,1,1z M65.029,120.996
			c30.894-0.013,55.979-25.125,55.967-56.025C120.983,34.077,95.871,8.991,64.971,9.004C34.077,9.017,8.991,34.129,9.004,65.029
			C9.017,95.923,34.129,121.009,65.029,120.996z"/>
	</g>
</g>
</svg>
